<svg xmlns="http://www.w3.org/2000/svg" version="1.1" xmlns:xlink="http://www.w3.org/1999/xlink" xmlns:svgjs="http://svgjs.dev/svgjs" width="1500" height="1500" viewBox="0 0 1500 1500"><rect width="1500" height="1500" fill="#000000"></rect><g transform="matrix(0.6666666666666666,0,0,0.6666666666666666,249.39393939393938,573.7856671869781)"><svg viewBox="0 0 396 140" data-background-color="#e0ded5" preserveAspectRatio="xMidYMid meet" height="530" width="1500" xmlns="http://www.w3.org/2000/svg" xmlns:xlink="http://www.w3.org/1999/xlink"><g id="tight-bounds" transform="matrix(1,0,0,1,0.2400000000000091,-0.1792266212554523)"><svg viewBox="0 0 395.52 140.35845324251093" height="140.35845324251093" width="395.52"><g><svg viewBox="0 0 676.7056270658629 240.1429892684769" height="140.35845324251093" width="395.52"><g transform="matrix(1,0,0,1,279.20802706586295,14.02305548567817)"><svg viewBox="0 0 397.4975999999999 212.09687829712055" height="212.09687829712055" width="397.4975999999999"><g id="textblocktransform"><svg viewBox="0 0 397.4975999999999 212.09687829712055" height="212.09687829712055" width="397.4975999999999" id="textblock"><g><rect width="397.4975999999999" height="12.817822921559669" x="0" y="157.2338857840219" fill="#ffffff" opacity="1" stroke-width="0" stroke="transparent" fill-opacity="1" class="rect-qz-0" data-fill-palette-color="primary" rx="1%" id="qz-0" data-palette-color="#243cfc"></rect></g><g transform="matrix(1,0,0,1,0.9887999999999693,0)"><svg viewBox="0 0 395.52 142.13435616438355" height="142.13435616438355" width="395.52"><g transform="matrix(1,0,0,1,0,0)"><svg width="395.52" viewBox="0.55 -38.7 109.49000000000001 39.35" height="142.13435616438355" data-palette-color="#243cfc"><path d="M0.55-34.4L22.9-34.4 22.35-30.6 13.9-30.6 13.9 0 9.25 0 9.25-30.6 0.55-30.6 0.55-34.4ZM27.2-26.3L31.7-26.3 31.7 0 27.2 0 27.2-26.3ZM29.45-38.7Q30.75-38.7 31.57-37.85 32.4-37 32.4-35.75L32.4-35.75Q32.4-34.5 31.6-33.68 30.8-32.85 29.45-32.85L29.45-32.85Q28.15-32.85 27.32-33.68 26.5-34.5 26.5-35.75L26.5-35.75Q26.5-37 27.32-37.85 28.15-38.7 29.45-38.7L29.45-38.7ZM48.95-26.95Q51.05-26.95 52.8-26.25 54.55-25.55 56.15-24.1L56.15-24.1 54.15-21.4Q52.95-22.35 51.75-22.83 50.55-23.3 49.15-23.3L49.15-23.3Q46.2-23.3 44.57-20.8 42.95-18.3 42.95-13L42.95-13Q42.95-3.1 49.15-3.1L49.15-3.1Q50.55-3.1 51.7-3.58 52.85-4.05 54.15-5L54.15-5 56.25-2.25Q53.05 0.65 49 0.65L49 0.65Q43.95 0.65 41.07-2.85 38.2-6.35 38.2-12.95L38.2-12.95Q38.2-17.25 39.52-20.4 40.85-23.55 43.27-25.25 45.7-26.95 48.95-26.95L48.95-26.95ZM61.19-36.95L65.69-37.45 65.69 0 61.19 0 61.19-36.95ZM74.84-26.3L79.54-26.3 70.64-14.6 80.39 0 75.39 0 65.94-14.4 74.84-26.3ZM84.69-34.4L89.34-34.4 89.34 0 84.69 0 84.69-34.4ZM108.39-4.05L110.04-1.15Q107.54 0.65 104.49 0.65L104.49 0.65Q101.29 0.65 99.56-1.2 97.84-3.05 97.84-6.4L97.84-6.4 97.84-22.9 94.09-22.9 94.09-26.3 97.84-26.3 97.84-32.35 102.34-32.9 102.34-26.3 108.14-26.3 107.64-22.9 102.34-22.9 102.34-6.45Q102.34-3.05 105.19-3.05L105.19-3.05Q106.04-3.05 106.76-3.3 107.49-3.55 108.39-4.05L108.39-4.05Z" opacity="1" transform="matrix(1,0,0,1,0,0)" fill="#ffffff" class="wordmark-text-0" data-fill-palette-color="primary" id="text-0"></path></svg></g></svg></g><g transform="matrix(1,0,0,1,0,185.15123832521994)"><svg viewBox="0 0 232.209792 26.945639971900608" height="26.945639971900608" width="232.209792"><g transform="matrix(1,0,0,1,0,0)"><svg width="232.209792" viewBox="3.75 -35.25 384.31 44.6" height="26.945639971900608" data-palette-color="#243cfc"><path d="M12.2-12.65L25.45 0 20.2 0 7.8-11.65 7.8 0 3.75 0 3.75-35.25 7.8-35.25 7.8-13.3 19.15-24.3 24.3-24.3 12.2-12.65ZM48.7-13.05L48.7-11.55 30.9-11.55Q31.1-7.3 33.2-5.13 35.3-2.95 39.15-2.95L39.15-2.95Q43.4-2.95 46.95-5.85L46.95-5.85 48.3-2.9Q46.7-1.4 44.2-0.53 41.7 0.35 39.1 0.35L39.1 0.35Q33.4 0.35 30.12-3 26.85-6.35 26.85-12.25L26.85-12.25Q26.85-16 28.3-18.88 29.75-21.75 32.37-23.35 35-24.95 38.35-24.95L38.35-24.95Q43.2-24.95 45.95-21.78 48.7-18.6 48.7-13.05L48.7-13.05ZM38.4-21.8Q35.2-21.8 33.27-19.8 31.35-17.8 31-14.15L31-14.15 45.15-14.15Q45.05-17.85 43.3-19.83 41.55-21.8 38.4-21.8L38.4-21.8ZM75.05-13.05L75.05-11.55 57.25-11.55Q57.45-7.3 59.55-5.13 61.65-2.95 65.5-2.95L65.5-2.95Q69.75-2.95 73.3-5.85L73.3-5.85 74.65-2.9Q73.05-1.4 70.55-0.53 68.05 0.35 65.45 0.35L65.45 0.35Q59.75 0.35 56.47-3 53.2-6.35 53.2-12.25L53.2-12.25Q53.2-16 54.65-18.88 56.1-21.75 58.72-23.35 61.35-24.95 64.7-24.95L64.7-24.95Q69.55-24.95 72.3-21.78 75.05-18.6 75.05-13.05L75.05-13.05ZM64.75-21.8Q61.55-21.8 59.62-19.8 57.7-17.8 57.35-14.15L57.35-14.15 71.5-14.15Q71.4-17.85 69.65-19.83 67.9-21.8 64.75-21.8L64.75-21.8ZM93.24-24.95Q96.44-24.95 98.89-23.35 101.34-21.75 102.69-18.88 104.04-16 104.04-12.2L104.04-12.2Q104.04-8.4 102.69-5.58 101.34-2.75 98.92-1.2 96.49 0.35 93.24 0.35L93.24 0.35Q90.39 0.35 88.27-0.9 86.14-2.15 85.04-4.45L85.04-4.45 85.04 9 80.99 9 80.99-24.35 85.04-24.35 85.04-20.15Q86.14-22.45 88.27-23.7 90.39-24.95 93.24-24.95L93.24-24.95ZM92.44-3Q95.99-3 97.94-5.4 99.89-7.8 99.89-12.2L99.89-12.2Q99.89-16.6 97.94-19.07 95.99-21.55 92.44-21.55L92.44-21.55Q88.89-21.55 86.97-19.15 85.04-16.75 85.04-12.3L85.04-12.3Q85.04-7.85 86.97-5.43 88.89-3 92.44-3L92.44-3ZM133.69-2.9Q134.79-2.9 135.89-3.05L135.89-3.05 135.69 0.15Q134.54 0.35 133.19 0.35L133.19 0.35Q128.79 0.35 126.56-1.95 124.34-4.25 124.34-8.35L124.34-8.35 124.34-21.15 119.59-21.15 119.59-24.35 124.34-24.35 124.34-31.75 128.39-31.75 128.39-24.35 135.29-24.35 135.29-21.15 128.39-21.15 128.39-8.65Q128.39-2.9 133.69-2.9L133.69-2.9ZM152.24-24.95Q160.99-24.95 160.99-15.3L160.99-15.3 160.99 0 156.94 0 156.94-15.05Q156.94-18.45 155.61-20 154.29-21.55 151.39-21.55L151.39-21.55Q148.04-21.55 146.04-19.5 144.04-17.45 144.04-13.95L144.04-13.95 144.04 0 139.99 0 139.99-35.25 144.04-35.25 144.04-20.45Q145.24-22.65 147.36-23.8 149.49-24.95 152.24-24.95L152.24-24.95ZM172.43 0L168.38 0 168.38-24.35 172.43-24.35 172.43 0ZM167.98-30.35L167.98-34.9 172.88-34.9 172.88-30.35 167.98-30.35ZM192.23-24.95Q200.98-24.95 200.98-15.3L200.98-15.3 200.98 0 196.93 0 196.93-15.05Q196.93-18.45 195.61-20 194.28-21.55 191.38-21.55L191.38-21.55Q188.03-21.55 186.03-19.5 184.03-17.45 184.03-13.95L184.03-13.95 184.03 0 179.98 0 179.98-24.35 183.98-24.35 183.98-20.35Q185.18-22.6 187.33-23.78 189.48-24.95 192.23-24.95L192.23-24.95ZM226.13-24.35L230.18-24.35 230.18-1.65Q230.18 3.8 227.38 6.58 224.58 9.35 219.08 9.35L219.08 9.35Q212.68 9.35 208.33 6.05L208.33 6.05 209.68 3.05Q212.13 4.65 214.28 5.35 216.43 6.05 219.08 6.05L219.08 6.05Q222.58 6.05 224.38 4.17 226.18 2.3 226.18-1.3L226.18-1.3 226.18-5.6Q225.13-3.25 222.95-2 220.78-0.75 217.83-0.75L217.83-0.75Q214.63-0.75 212.15-2.25 209.68-3.75 208.3-6.5 206.93-9.25 206.93-12.85L206.93-12.85Q206.93-16.45 208.3-19.2 209.68-21.95 212.15-23.45 214.63-24.95 217.83-24.95L217.83-24.95Q220.73-24.95 222.88-23.7 225.03-22.45 226.13-20.15L226.13-20.15 226.13-24.35ZM218.63-4.1Q222.13-4.1 224.13-6.43 226.13-8.75 226.13-12.85L226.13-12.85Q226.13-16.9 224.15-19.23 222.18-21.55 218.63-21.55L218.63-21.55Q215.08-21.55 213.05-19.23 211.03-16.9 211.03-12.85L211.03-12.85Q211.03-8.75 213.05-6.43 215.08-4.1 218.63-4.1L218.63-4.1ZM245.93 0.35Q239.78 0.35 236.18-2.8L236.18-2.8 237.53-5.8Q239.48-4.25 241.5-3.58 243.53-2.9 246.08-2.9L246.08-2.9Q248.78-2.9 250.2-3.83 251.63-4.75 251.63-6.5L251.63-6.5Q251.63-7.95 250.68-8.8 249.73-9.65 247.53-10.15L247.53-10.15 243.43-11.1Q240.33-11.8 238.68-13.5 237.03-15.2 237.03-17.7L237.03-17.7Q237.03-20.95 239.58-22.95 242.13-24.95 246.38-24.95L246.38-24.95Q248.93-24.95 251.23-24.13 253.53-23.3 255.08-21.75L255.08-21.75 253.73-18.8Q250.38-21.65 246.38-21.65L246.38-21.65Q243.83-21.65 242.4-20.68 240.98-19.7 240.98-17.95L240.98-17.95Q240.98-16.5 241.85-15.63 242.73-14.75 244.68-14.3L244.68-14.3 248.83-13.3Q252.23-12.5 253.88-10.88 255.53-9.25 255.53-6.65L255.53-6.65Q255.53-3.45 252.95-1.55 250.38 0.35 245.93 0.35L245.93 0.35ZM275.17 0L275.17-35.25 287.02-35.25Q295.47-35.25 300.1-30.68 304.72-26.1 304.72-17.65L304.72-17.65Q304.72-9.2 300.1-4.6 295.47 0 287.02 0L287.02 0 275.17 0ZM279.27-3.5L286.77-3.5Q300.47-3.5 300.47-17.65L300.47-17.65Q300.47-31.75 286.77-31.75L286.77-31.75 279.27-31.75 279.27-3.5ZM321.62 0.35Q318.17 0.35 315.54-1.2 312.92-2.75 311.49-5.63 310.07-8.5 310.07-12.3L310.07-12.3Q310.07-16.1 311.49-18.98 312.92-21.85 315.54-23.4 318.17-24.95 321.62-24.95L321.62-24.95Q325.07-24.95 327.72-23.4 330.37-21.85 331.79-18.98 333.22-16.1 333.22-12.3L333.22-12.3Q333.22-8.5 331.79-5.63 330.37-2.75 327.72-1.2 325.07 0.35 321.62 0.35L321.62 0.35ZM321.62-3Q325.22-3 327.14-5.38 329.07-7.75 329.07-12.3L329.07-12.3Q329.07-16.75 327.12-19.18 325.17-21.6 321.62-21.6L321.62-21.6Q318.07-21.6 316.12-19.18 314.17-16.75 314.17-12.3L314.17-12.3Q314.17-7.8 316.09-5.4 318.02-3 321.62-3L321.62-3ZM351.52-24.95Q360.27-24.95 360.27-15.3L360.27-15.3 360.27 0 356.22 0 356.22-15.05Q356.22-18.45 354.89-20 353.57-21.55 350.67-21.55L350.67-21.55Q347.32-21.55 345.32-19.5 343.32-17.45 343.32-13.95L343.32-13.95 343.32 0 339.27 0 339.27-24.35 343.27-24.35 343.27-20.35Q344.47-22.6 346.62-23.78 348.77-24.95 351.52-24.95L351.52-24.95ZM388.06-13.05L388.06-11.55 370.26-11.55Q370.46-7.3 372.56-5.13 374.66-2.95 378.51-2.95L378.51-2.95Q382.76-2.95 386.31-5.85L386.31-5.85 387.66-2.9Q386.06-1.4 383.56-0.53 381.06 0.35 378.46 0.35L378.46 0.35Q372.76 0.35 369.49-3 366.21-6.35 366.21-12.25L366.21-12.25Q366.21-16 367.66-18.88 369.11-21.75 371.74-23.35 374.36-24.95 377.71-24.95L377.71-24.95Q382.56-24.95 385.31-21.78 388.06-18.6 388.06-13.05L388.06-13.05ZM377.76-21.8Q374.56-21.8 372.64-19.8 370.71-17.8 370.36-14.15L370.36-14.15 384.51-14.15Q384.41-17.85 382.66-19.83 380.91-21.8 377.76-21.8L377.76-21.8Z" opacity="1" transform="matrix(1,0,0,1,0,0)" fill="#ffffff" class="slogan-text-1" data-fill-palette-color="secondary" id="text-1"></path></svg></g></svg></g></svg></g></svg></g><g><svg viewBox="0 0 245.65351679999995 240.1429892684769" height="240.1429892684769" width="245.65351679999995"><g><svg xmlns="http://www.w3.org/2000/svg" xmlns:xlink="http://www.w3.org/1999/xlink" version="1.1" x="0" y="0" viewBox="9.1 9.9 84.7 82.8" enable-background="new 0 0 100 100" xml:space="preserve" height="240.1429892684769" width="245.65351679999995" class="icon-icon-0" data-fill-palette-color="accent" id="icon-0"><polygon points="46.4,92.7 9.1,65 23.9,45 40.6,57.3 73.2,9.9 93.8,24.1 " fill="#ffffff" data-fill-palette-color="accent"></polygon></svg></g></svg></g></svg></g><defs></defs></svg><rect width="395.52" height="140.35845324251093" fill="none" stroke="none" visibility="hidden"></rect></g></svg></g></svg>